<svg width="25" height="24" viewBox="0 0 25 24" xmlns="http://www.w3.org/2000/svg">
<path fill-rule="evenodd" clip-rule="evenodd" d="M15.1246 3.19495C14.611 3.19495 14.1946 3.61132 14.1946 4.12495V7.69495H9.87458C9.36096 7.69495 8.94458 8.11132 8.94458 8.62495V12.1949H4.62458C4.11096 12.1949 3.69458 12.6113 3.69458 13.1249V18.9449H3.12458C2.61096 18.9449 2.19458 19.3613 2.19458 19.8749C2.19458 20.3886 2.61096 20.8049 3.12458 20.8049L4.62458 20.8049L21.8746 20.8049C22.3882 20.8049 22.8046 20.3886 22.8046 19.8749C22.8046 19.3613 22.3882 18.9449 21.8746 18.9449H21.3046V4.12495C21.3046 3.61132 20.8882 3.19495 20.3746 3.19495H15.1246ZM14.1946 18.9449V9.55495H10.8046V18.9449H14.1946ZM5.55458 14.0549H8.94458V18.9449H5.55458V14.0549Z" fill="white"/>
</svg>
