<svg width="25" height="24" viewBox="0 0 25 24" fill="none" xmlns="http://www.w3.org/2000/svg">
<path d="M12.5 0.75C6.3125 0.75 1.25 5.8125 1.25 12C1.25 18.1875 6.3125 23.25 12.5 23.25C13.4844 23.25 14.3281 22.4062 14.3281 21.4219C14.3281 21 14.1875 20.4375 13.9062 20.1562C13.625 19.875 13.4844 19.4531 13.4844 18.8906C13.4844 17.9062 14.3281 17.0625 15.3125 17.0625H17.5625C21.0781 17.0625 23.75 14.25 23.75 10.875C23.75 5.25 18.6875 0.75 12.5 0.75ZM5.60938 12C4.625 12 3.78125 11.1562 3.78125 10.1719C3.78125 9.1875 4.625 8.34375 5.60938 8.34375C6.59375 8.34375 7.4375 9.1875 7.4375 10.1719C7.4375 11.1562 6.59375 12 5.60938 12ZM9.40625 6.9375C8.28125 6.9375 7.4375 6.09375 7.4375 5.10938C7.4375 4.125 8.28125 3.28125 9.40625 3.28125C10.5312 3.28125 11.2344 4.125 11.2344 5.10938C11.2344 6.09375 10.3906 6.9375 9.40625 6.9375ZM15.5938 6.9375C14.6094 6.9375 13.7656 6.09375 13.7656 5.10938C13.7656 4.125 14.6094 3.28125 15.5938 3.28125C16.5781 3.28125 17.4219 4.125 17.4219 5.10938C17.4219 6.09375 16.7188 6.9375 15.5938 6.9375ZM19.3906 12C18.4062 12 17.5625 11.1562 17.5625 10.1719C17.5625 9.1875 18.4062 8.34375 19.3906 8.34375C20.375 8.34375 21.2188 9.1875 21.2188 10.1719C21.2188 11.1562 20.375 12 19.3906 12Z" fill="white"/>
</svg>
