<svg width="25" height="24" viewBox="0 0 25 24" fill="none" xmlns="http://www.w3.org/2000/svg">
<path fill-rule="evenodd" clip-rule="evenodd" d="M12.5425 11.4857C11.7388 12.0196 10.7948 12.3029 9.82996 12.3C8.54085 12.2921 7.30706 11.7754 6.39691 10.8625C5.48676 9.94953 4.9739 8.71409 4.96997 7.42496C4.96998 6.46014 5.25633 5.51701 5.79266 4.715C6.329 3.91299 7.09122 3.28818 7.98288 2.91965C8.87454 2.55112 9.85554 2.45544 10.8016 2.64476C11.7477 2.83408 12.6162 3.29989 13.2974 3.98317C13.9786 4.66645 14.4417 5.53651 14.6281 6.48316C14.8145 7.4298 14.7159 8.41044 14.3446 9.30097C13.9733 10.1915 13.3461 10.9518 12.5425 11.4857ZM7.70978 6.00827C7.42958 6.42762 7.28003 6.92062 7.28003 7.42496C7.28003 8.10126 7.5487 8.74987 8.02692 9.22809C8.50513 9.70631 9.15365 9.97498 9.82996 9.97498C10.3343 9.97498 10.8274 9.82543 11.2467 9.54523C11.6661 9.26503 11.9929 8.86677 12.1859 8.40082C12.3789 7.93487 12.4294 7.42216 12.331 6.92751C12.2326 6.43285 11.9897 5.9785 11.6331 5.62187C11.2765 5.26525 10.8221 5.02236 10.3275 4.92397C9.8328 4.82557 9.32014 4.87607 8.85419 5.06908C8.38824 5.26208 7.98998 5.58893 7.70978 6.00827Z" fill="white"/>
<path d="M6.125 13.6951H13.535C14.8253 13.6951 16.063 14.2066 16.9768 15.1176C17.8906 16.0286 18.406 17.2647 18.41 18.5551V20.415C18.41 20.5667 18.3802 20.7169 18.3221 20.8571C18.2641 20.9972 18.179 21.1245 18.0717 21.2317C17.9645 21.339 17.8371 21.4241 17.697 21.4821C17.5569 21.5402 17.4067 21.5701 17.255 21.5701C17.1033 21.5701 16.9531 21.5402 16.813 21.4821C16.6728 21.4241 16.5456 21.339 16.4383 21.2317C16.3311 21.1245 16.246 20.9972 16.1879 20.8571C16.1299 20.7169 16.1 20.5667 16.1 20.415V18.5551C16.0961 17.8774 15.824 17.2288 15.3434 16.751C14.8628 16.2732 14.2127 16.005 13.535 16.005H6.125C5.44731 16.005 4.79716 16.2732 4.31656 16.751C3.83596 17.2288 3.56393 17.8774 3.55997 18.5551V20.415C3.55997 20.5667 3.53012 20.7169 3.47208 20.8571C3.41403 20.9972 3.32893 21.1245 3.22168 21.2317C3.11443 21.339 2.98709 21.4241 2.84695 21.4821C2.70682 21.5402 2.55671 21.5701 2.40503 21.5701C2.25335 21.5701 2.10314 21.5402 1.96301 21.4821C1.82288 21.4241 1.69554 21.339 1.58829 21.2317C1.48104 21.1245 1.39593 20.9972 1.33789 20.8571C1.27985 20.7169 1.25 20.5667 1.25 20.415V18.5551C1.25397 17.2647 1.76936 16.0286 2.68317 15.1176C3.59698 14.2066 4.83466 13.6951 6.125 13.6951Z" fill="white"/>
<path d="M20.33 13.845C20.0316 13.7674 19.7147 13.8116 19.4489 13.9677C19.1831 14.1238 18.9902 14.3792 18.9126 14.6776C18.835 14.9759 18.8791 15.2929 19.0353 15.5587C19.1914 15.8245 19.4467 16.0174 19.7451 16.095C20.2923 16.2346 20.7777 16.5518 21.1252 16.997C21.4727 17.4423 21.6626 17.9903 21.665 18.555V20.415C21.665 20.7214 21.7867 21.0151 22.0033 21.2317C22.2199 21.4483 22.5137 21.5701 22.8201 21.5701C23.1264 21.5701 23.4202 21.4483 23.6368 21.2317C23.8534 21.0151 23.9751 20.7214 23.9751 20.415V18.555C23.976 17.4769 23.6184 16.429 22.9586 15.5763C22.2987 14.7236 21.374 14.1146 20.33 13.845Z" fill="white"/>
<path d="M16.1574 2.68994C16.3085 2.66831 16.4623 2.67684 16.6101 2.71503V2.74501C17.6541 3.01704 18.5785 3.62775 19.2383 4.48144C19.898 5.33514 20.2559 6.38361 20.2559 7.46254C20.2559 8.54146 19.898 9.58989 19.2383 10.4436C18.5785 11.2973 17.6541 11.908 16.6101 12.18C16.5156 12.1947 16.4195 12.1947 16.3251 12.18C16.1201 12.1835 15.918 12.1317 15.7401 12.03C15.5442 11.9114 15.3874 11.7379 15.2892 11.531C15.191 11.3241 15.1557 11.0929 15.1876 10.8661C15.2196 10.6393 15.3173 10.4269 15.4689 10.2551C15.6204 10.0834 15.819 9.95996 16.0401 9.90004C16.5861 9.75767 17.0695 9.43817 17.4146 8.99165C17.7596 8.54514 17.9467 7.99679 17.9467 7.43251C17.9467 6.86823 17.7596 6.31988 17.4146 5.87337C17.0695 5.42685 16.5861 5.1074 16.0401 4.96503C15.7451 4.88386 15.493 4.69178 15.3365 4.42898C15.1799 4.16619 15.131 3.85303 15.2001 3.55502C15.2368 3.40691 15.3026 3.26756 15.3935 3.145C15.4845 3.02245 15.5988 2.91911 15.7299 2.841C15.861 2.7629 16.0064 2.71157 16.1574 2.68994Z" fill="white"/>
</svg>
