<svg width="25" height="24" viewBox="0 0 25 24" fill="none" xmlns="http://www.w3.org/2000/svg">
<path fill-rule="evenodd" clip-rule="evenodd" d="M2.53768 2.81134C1.96459 2.81134 1.5 3.27593 1.5 3.84902V15.6227C1.5 16.1958 1.96459 16.6604 2.53768 16.6604H3.54657C3.39478 17.0395 3.31128 17.4534 3.31128 17.8868C3.31128 19.7104 4.78956 21.1887 6.61312 21.1887C8.43668 21.1887 9.91497 19.7104 9.91497 17.8868C9.91497 17.4534 9.83147 17.0395 9.67968 16.6604H15.3203C15.1685 17.0395 15.085 17.4534 15.085 17.8868C15.085 19.7104 16.5633 21.1887 18.3868 21.1887C20.2104 21.1887 21.6887 19.7104 21.6887 17.8868C21.6887 17.4534 21.6052 17.0396 21.4534 16.6604H22.4623C23.0354 16.6604 23.5 16.1958 23.5 15.6227V11.0944C23.5 10.8192 23.3907 10.5552 23.1961 10.3606L20.4791 7.64363C20.2845 7.44903 20.0205 7.3397 19.7453 7.3397H17.1603V3.84902C17.1603 3.27593 16.6958 2.81134 16.1227 2.81134H2.53768ZM18.3762 16.6604H18.3975C19.0699 16.6661 19.6133 17.213 19.6133 17.8868C19.6133 18.5642 19.0642 19.1133 18.3868 19.1133C17.7095 19.1133 17.1603 18.5642 17.1603 17.8868C17.1603 17.213 17.7037 16.6661 18.3762 16.6604ZM18.4043 14.585H21.4246V11.5242L19.3155 9.41507H17.1603V14.585H18.3694C18.3752 14.585 18.381 14.585 18.3868 14.585C18.3926 14.585 18.3985 14.585 18.4043 14.585ZM6.61312 14.585L6.62037 14.585H15.085L15.085 8.37739L15.085 8.37314V4.88671H3.57537V14.585H6.60588L6.61312 14.585ZM5.38664 17.8868C5.38664 17.211 5.93327 16.6628 6.60851 16.6604H6.61773C7.29298 16.6628 7.8396 17.211 7.8396 17.8868C7.8396 18.5642 7.29049 19.1133 6.61312 19.1133C5.93576 19.1133 5.38664 18.5642 5.38664 17.8868Z" fill="white"/>
<path d="M2.53768 2.81134C1.96459 2.81134 1.5 3.27593 1.5 3.84902V15.6227C1.5 16.1958 1.96459 16.6604 2.53768 16.6604H16.1227C16.6958 16.6604 17.1603 16.1958 17.1603 15.6227V3.84902C17.1603 3.27593 16.6958 2.81134 16.1227 2.81134H2.53768Z" fill="white"/>
</svg>
