<svg width="25" height="24" viewBox="0 0 25 24" fill="none" xmlns="http://www.w3.org/2000/svg">
<path d="M22.5785 12.3135C22.5082 12.1686 22.4716 12.0096 22.4716 11.8485C22.4716 11.6874 22.5082 11.5284 22.5785 11.3835L23.3735 9.58348C23.5369 9.22563 23.6214 8.83693 23.6214 8.44356C23.6214 8.05018 23.5369 7.66139 23.3735 7.30354C23.2188 6.95449 22.9938 6.64108 22.7124 6.38298C22.4311 6.12488 22.0996 5.92765 21.7385 5.80354L19.8935 5.11351C19.7445 5.05391 19.6092 4.96466 19.4958 4.85121C19.3823 4.73776 19.2931 4.60247 19.2335 4.45351L18.5285 2.59352C18.3891 2.23054 18.1773 1.89971 17.9059 1.62123C17.6345 1.34275 17.3093 1.12243 16.95 0.973679C16.5908 0.824924 16.205 0.750838 15.8162 0.755967C15.4274 0.761095 15.0437 0.845347 14.6885 1.00353L12.8885 1.82851C12.5902 1.94864 12.2569 1.94864 11.9585 1.82851L10.1585 1.00353C9.80253 0.84291 9.41749 0.756757 9.02701 0.750382C8.63653 0.744006 8.24885 0.817539 7.88782 0.966446C7.52679 1.11535 7.20001 1.33649 6.92757 1.61629C6.65512 1.89609 6.44274 2.22865 6.3035 2.59352L5.61351 4.45351C5.55391 4.60247 5.46466 4.73776 5.35121 4.85121C5.23776 4.96466 5.10247 5.05391 4.95351 5.11351L3.09352 5.80354C2.72865 5.94278 2.39609 6.15512 2.11629 6.42757C1.83649 6.70001 1.61535 7.02683 1.46645 7.38786C1.31754 7.74889 1.24401 8.13648 1.25038 8.52696C1.25676 8.91744 1.34291 9.30258 1.50353 9.65855L2.32851 11.4585C2.44864 11.7568 2.44864 12.0901 2.32851 12.3885L1.50353 14.1885C1.34424 14.5448 1.26192 14.9307 1.26192 15.321C1.26192 15.7113 1.34424 16.0972 1.50353 16.4535C1.65343 16.8031 1.87507 17.1172 2.15414 17.3756C2.43322 17.634 2.76348 17.8309 3.1235 17.9535L4.98349 18.6586C5.13245 18.7182 5.26779 18.8073 5.38124 18.9208C5.49469 19.0342 5.58389 19.1696 5.64349 19.3186L6.33353 21.1635C6.53917 21.7066 6.90418 22.1748 7.38066 22.5067C7.85714 22.8386 8.42284 23.0188 9.00353 23.0235C9.41234 23.0254 9.81665 22.9384 10.1885 22.7685L11.9885 21.9436C12.1347 21.877 12.2929 21.8413 12.4535 21.8385C12.6156 21.8426 12.7747 21.8836 12.9185 21.9585L14.7185 22.7535C15.0738 22.9166 15.4601 23.001 15.851 23.001C16.2419 23.001 16.6282 22.9166 16.9835 22.7535C17.3464 22.6074 17.6744 22.3862 17.9458 22.1044C18.2173 21.8226 18.4261 21.4866 18.5585 21.1185L19.2635 19.2735C19.3231 19.1246 19.4123 18.9893 19.5258 18.8758C19.6392 18.7624 19.7746 18.6731 19.9235 18.6135L21.7685 17.9086C22.1295 17.7845 22.4611 17.5871 22.7424 17.329C23.0238 17.0709 23.2488 16.7576 23.4035 16.4086C23.5665 16.0533 23.651 15.667 23.651 15.276C23.651 14.8851 23.5665 14.4988 23.4035 14.1435L22.5785 12.3135ZM8.01352 9.02849C8.01352 8.59088 8.18735 8.17127 8.49678 7.86183C8.80622 7.5524 9.22592 7.37853 9.66353 7.37853C10.1011 7.37853 10.5208 7.5524 10.8302 7.86183C11.1397 8.17127 11.3135 8.59088 11.3135 9.02849C11.3135 9.4661 11.1397 9.8858 10.8302 10.1952C10.5208 10.5047 10.1011 10.6785 9.66353 10.6785C9.22592 10.6785 8.80622 10.5047 8.49678 10.1952C8.18735 9.8858 8.01352 9.4661 8.01352 9.02849ZM10.3535 16.1085C10.2753 16.2179 10.1716 16.3065 10.0513 16.3666C9.93104 16.4268 9.79795 16.4566 9.66353 16.4535C9.48072 16.4516 9.30278 16.3941 9.15349 16.2885C9.06255 16.2218 8.98571 16.1377 8.9274 16.0412C8.86909 15.9446 8.83047 15.8375 8.81374 15.7259C8.79701 15.6144 8.80252 15.5007 8.82994 15.3913C8.85736 15.2819 8.90613 15.179 8.9735 15.0885L14.5985 7.58855C14.74 7.41048 14.9436 7.29253 15.1685 7.2585H15.3035C15.4891 7.2583 15.6691 7.32183 15.8135 7.43849C15.905 7.50503 15.9821 7.58935 16.0402 7.68642C16.0983 7.78348 16.1361 7.89131 16.1516 8.00337C16.167 8.11544 16.1596 8.2295 16.1299 8.33864C16.1001 8.44778 16.0486 8.54971 15.9785 8.63847L10.3535 16.1085ZM15.2885 16.3035C14.9622 16.3035 14.6432 16.2067 14.3718 16.0254C14.1005 15.8441 13.889 15.5864 13.7641 15.2849C13.6392 14.9834 13.6065 14.6517 13.6702 14.3316C13.7339 14.0115 13.891 13.7176 14.1218 13.4868C14.3525 13.2561 14.6466 13.0989 14.9666 13.0352C15.2867 12.9715 15.6184 13.0043 15.9199 13.1291C16.2214 13.254 16.4791 13.4655 16.6604 13.7369C16.8418 14.0082 16.9385 14.3271 16.9385 14.6535C16.9306 15.0859 16.7533 15.4979 16.4447 15.8009C16.1362 16.1039 15.721 16.2736 15.2885 16.2735V16.3035Z" fill="white"/>
</svg>
