<svg width="25" height="24" viewBox="0 0 25 24" fill="white" xmlns="http://www.w3.org/2000/svg">
  <path d="M21.9746 8.16145L13.6179 1.84177C13.3135 1.61968 12.9465 1.5 12.5696 1.5C12.1928 1.5 11.8257 1.61968 11.5213 1.84177L3.00567 8.17138C2.78594 8.33276 2.60748 8.5438 2.48487 8.7873C2.36226 9.03079 2.29897 9.29982 2.30016 9.57244V20.7312C2.29611 21.0851 2.40011 21.4317 2.59826 21.7249C2.66018 21.8197 2.73361 21.9065 2.81687 21.9833C2.97702 22.1477 3.16866 22.2782 3.38035 22.367C3.59205 22.4558 3.81945 22.501 4.04901 22.5H8.72914C8.93344 22.5015 9.13592 22.4615 9.32433 22.3825C9.51274 22.3035 9.68315 22.1871 9.82528 22.0403C9.9674 21.8935 10.0783 21.7195 10.1512 21.5286C10.2241 21.3378 10.2575 21.1341 10.2494 20.93L10.1898 15.594C10.1924 15.2979 10.3119 15.0149 10.5222 14.8065C10.7325 14.598 11.0166 14.4811 11.3127 14.4811H13.6179C13.9131 14.4811 14.1962 14.5984 14.4049 14.8071C14.6136 15.0158 14.7308 15.2989 14.7308 15.594V20.93C14.7308 21.3305 14.89 21.7147 15.1732 21.998C15.4565 22.2812 15.8406 22.4403 16.2412 22.4403H20.981C21.4448 22.4403 21.8896 22.2561 22.2176 21.9281C22.5456 21.6001 22.7298 21.1553 22.7298 20.6915V9.55257C22.723 9.27748 22.651 9.00794 22.5197 8.7661C22.3884 8.52426 22.2016 8.31703 21.9746 8.16145Z" fill="white"/>
</svg>