<svg width="25" height="24" viewBox="0 0 25 24" fill="none" xmlns="http://www.w3.org/2000/svg">
<g clip-path="url(#clip0_26_3556)">
<path d="M15.0289 2.74908C16.1784 2.12208 17.5799 2.95407 17.5799 4.26345V19.7366C17.5799 21.046 16.1784 21.878 15.0289 21.251L5.35635 15.9751H3.35C1.9831 15.9751 0.875 14.867 0.875 13.5001V10.5001C0.875 9.13315 1.9831 8.02506 3.35 8.02506H5.3563L15.0289 2.74908Z" fill="white"/>
<path d="M22.8664 6.39095C23.2028 6.81143 23.1346 7.42499 22.7141 7.76138L20.2141 9.76138C19.7936 10.0978 19.1801 10.0296 18.8437 9.60911C18.5073 9.18863 18.5755 8.57507 18.996 8.23868L21.496 6.23868C21.9164 5.9023 22.53 5.97047 22.8664 6.39095Z" fill="white"/>
<path d="M19.105 12.0251C19.105 11.4866 19.5415 11.05 20.08 11.05H23.13C23.6685 11.05 24.105 11.4866 24.105 12.0251C24.105 12.5635 23.6685 13 23.13 13H20.08C19.5415 13 19.105 12.5635 19.105 12.0251Z" fill="white"/>
<path d="M20.2141 14.7387C19.7936 14.4023 19.1801 14.4705 18.8437 14.891C18.5073 15.3115 18.5755 15.925 18.996 16.2614L21.496 18.2614C21.9164 18.5978 22.53 18.5296 22.8664 18.1091C23.2028 17.6887 23.1346 17.0751 22.7141 16.7387L20.2141 14.7387Z" fill="white"/>
</g>
<defs>
<clipPath id="clip0_26_3556">
<rect width="24" height="24" fill="white" transform="translate(0.5)"/>
</clipPath>
</defs>
</svg>
