<svg width="37" height="36" viewBox="0 0 37 36" fill="none" xmlns="http://www.w3.org/2000/svg">
<circle cx="18.5" cy="18" r="18" fill="#E6E6E6"/>
<path d="M26.0789 9.02136L10.5042 12.0441C9.91684 12.1491 9.5 12.7158 9.5 13.3666V20.2517C9.5 20.9025 9.91684 21.4692 10.5042 21.5742L12.0958 21.8891C12.74 23.0646 13.9526 25.1007 15.5821 26.759C16.1316 27.3258 17.0411 26.822 16.9274 25.9824C16.7758 24.8698 16.8137 23.6733 16.8705 22.8337L26.0789 24.6389C26.8179 24.7859 27.5 24.1561 27.5 23.3165V10.3438C27.5 9.50416 26.8179 8.87442 26.0789 9.02136ZM15.3168 17.6698C15.3168 17.9007 15.1463 18.0896 14.9379 18.0896H13.3842C13.1758 18.0896 13.0053 17.9007 13.0053 17.6698V15.9485C13.0053 15.7176 13.1758 15.5287 13.3842 15.5287H14.9379C15.1463 15.5287 15.3168 15.7176 15.3168 15.9485V17.6698ZM19.6558 17.6698C19.6558 17.9007 19.4853 18.0896 19.2768 18.0896H17.7232C17.5147 18.0896 17.3442 17.9007 17.3442 17.6698V15.9485C17.3442 15.7176 17.5147 15.5287 17.7232 15.5287H19.2768C19.4853 15.5287 19.6558 15.7176 19.6558 15.9485V17.6698ZM24.0137 17.6698C24.0137 17.9007 23.8432 18.0896 23.6347 18.0896H22.0811C21.8726 18.0896 21.7021 17.9007 21.7021 17.6698V15.9485C21.7021 15.7176 21.8726 15.5287 22.0811 15.5287H23.6158C23.8242 15.5287 23.9947 15.7176 23.9947 15.9485V17.6698H24.0137Z" fill="#4D4D4D"/>
</svg>
