<svg width="25" height="24" viewBox="0 0 25 24" fill="none" xmlns="http://www.w3.org/2000/svg">
<path fill-rule="evenodd" clip-rule="evenodd" d="M9.40381 0.674988H15.5965C16.6573 0.674988 17.5645 1.40926 17.8026 2.42561L17.8039 2.4312L17.8373 2.60338L17.8567 2.77807L17.8624 2.94081L17.8624 3.19882H19.4668C21.0975 3.19882 22.4624 4.36031 22.5578 5.8682L22.5632 6.03713V20.4867C22.5632 22.0191 21.2565 23.2353 19.6469 23.3202L19.4668 23.325H5.53334C3.90266 23.325 2.53775 22.1635 2.44234 20.6556L2.43701 20.4867V6.03713C2.43701 4.50469 3.74368 3.28848 5.3533 3.20356L5.53334 3.19882H7.13797L7.13798 2.94081C7.13798 1.87996 7.87225 0.972747 8.88861 0.734647L8.8942 0.733338L9.06637 0.700002L9.24106 0.680555L9.40381 0.674988ZM9.71721 2.16191L9.59916 2.16836L9.47634 2.18886L9.3552 2.22372C9.05212 2.33032 8.81227 2.56112 8.69764 2.85743L8.65729 2.9864L8.635 3.10331L8.62524 3.23592L8.62459 4.6913L8.63103 4.80936L8.65153 4.93218L8.68639 5.05333C8.793 5.3564 9.02379 5.59625 9.32011 5.71088L9.44907 5.75124L9.56598 5.77352L9.69857 5.78328L15.2831 5.78393L15.4011 5.77749L15.5239 5.75699L15.6451 5.72213C15.9482 5.61553 16.188 5.38473 16.3026 5.08842L16.343 4.95945L16.3653 4.84254L16.375 4.70993L16.3757 3.25457L16.3691 3.1347L16.3499 3.01842L16.3172 2.90179C16.1669 2.46218 15.7567 2.16191 15.2872 2.16191H9.71721ZM8.08817 11.6825C8.08817 12.2528 7.62588 12.7151 7.05561 12.7151C6.48534 12.7151 6.02304 12.2528 6.02304 11.6825C6.02304 11.1123 6.48534 10.65 7.05561 10.65C7.62588 10.65 8.08817 11.1123 8.08817 11.6825ZM9.21464 11.6769C9.21464 11.1584 9.63491 10.7382 10.1533 10.7382H18.0384C18.5568 10.7382 18.9771 11.1584 18.9771 11.6769C18.9771 12.1953 18.5568 12.6156 18.0384 12.6156H10.1533C9.63491 12.6156 9.21464 12.1953 9.21464 11.6769ZM10.1534 16.0439C9.63495 16.0439 9.21468 16.4642 9.21468 16.9826C9.21468 17.501 9.63495 17.9213 10.1534 17.9213H18.0384C18.5568 17.9213 18.9771 17.501 18.9771 16.9826C18.9771 16.4642 18.5568 16.0439 18.0384 16.0439H10.1534ZM8.08821 16.9882C8.08821 17.5585 7.62592 18.0208 7.05565 18.0208C6.48538 18.0208 6.02308 17.5585 6.02308 16.9882C6.02308 16.418 6.48538 15.9557 7.05565 15.9557C7.62592 15.9557 8.08821 16.418 8.08821 16.9882Z" fill="white"/>
</svg>
