<svg width="25" height="24" viewBox="0 0 25 24" fill="none" xmlns="http://www.w3.org/2000/svg">
<path fill-rule="evenodd" clip-rule="evenodd" d="M14.9674 1.62095C15.0211 1.19147 14.7852 0.777999 14.3882 0.605649C13.9911 0.433299 13.528 0.54333 13.2509 0.875838L2.7509 13.4758C2.50871 13.7665 2.4565 14.171 2.61696 14.5136C2.77743 14.8562 3.1216 15.075 3.49991 15.075H11.8455L10.9324 22.3791C10.8788 22.8086 11.1146 23.222 11.5117 23.3944C11.9087 23.5667 12.3718 23.4567 12.6489 23.1242L23.1489 10.5242C23.3911 10.2336 23.4433 9.82907 23.2829 9.48647C23.1224 9.14387 22.7782 8.92502 22.3999 8.92502H14.0544L14.9674 1.62095Z" fill="white"/>
</svg>
