<svg width="25" height="24" viewBox="0 0 25 24" fill="none" xmlns="http://www.w3.org/2000/svg">
<path fill-rule="evenodd" clip-rule="evenodd" d="M20.9971 13C21.8255 13 22.4971 13.6716 22.4971 14.5V20.5C22.4971 21.3284 21.8255 22 20.9971 22H14.9971C14.1686 22 13.4971 21.3284 13.4971 20.5V14.5C13.4971 13.6716 14.1686 13 14.9971 13H20.9971ZM10 13C10.8284 13 11.5 13.6716 11.5 14.5V20.5C11.5 21.3284 10.8284 22 10 22H4C3.17157 22 2.5 21.3284 2.5 20.5V14.5C2.5 13.6716 3.17157 13 4 13H10ZM10 2C10.8284 2 11.5 2.67157 11.5 3.5V9.5C11.5 10.3284 10.8284 11 10 11H4C3.17157 11 2.5 10.3284 2.5 9.5V3.5C2.5 2.67157 3.17157 2 4 2H10ZM20.9971 2C21.8255 2 22.4971 2.67157 22.4971 3.5V9.5C22.4971 10.3284 21.8255 11 20.9971 11H14.9971C14.1686 11 13.4971 10.3284 13.4971 9.5V3.5C13.4971 2.67157 14.1686 2 14.9971 2H20.9971Z" fill="white"/>
</svg>
